<svg version="1.1" id="Layer_1" xmlns="http://www.w3.org/2000/svg" xmlns:xlink="http://www.w3.org/1999/xlink" x="0px" y="0px"
	 width="100%" viewBox="0 0 1024 1024" enable-background="new 0 0 1024 1024" xml:space="preserve">
<path fill="#000000" opacity="1.000000" stroke="none" 
	d="
M621.691650,160.160522 
	C656.415710,175.605530 684.567749,198.308243 704.622559,230.392105 
	C718.037292,251.853104 725.983521,275.382904 729.377686,300.426208 
	C733.727905,332.522980 732.278809,364.404297 725.453491,396.056274 
	C725.179871,397.325378 725.138306,398.644531 724.955566,400.226318 
	C728.457764,400.557953 731.806274,400.499634 734.969177,401.237152 
	C752.075562,405.226044 760.168396,417.979828 762.939636,433.616760 
	C768.500366,464.993622 763.311584,494.946014 746.416260,522.243469 
	C738.664490,534.767822 727.436279,543.205017 712.315613,545.160095 
	C709.379883,545.539734 708.614563,546.724304 708.124939,549.469604 
	C704.400452,570.354309 698.820557,590.644043 688.235352,609.270020 
	C680.445679,622.977112 671.106079,635.498230 659.691956,646.377380 
	C656.663147,649.264160 656.245178,650.943298 659.441040,654.297974 
	C670.976990,666.407532 681.140320,679.612915 688.109863,694.959900 
	C689.601257,698.244080 692.054321,699.570496 695.118652,700.703735 
	C732.118713,714.387268 769.183533,727.902710 806.046204,741.948181 
	C827.473999,750.112671 847.895935,760.201050 863.876831,777.444946 
	C878.562744,793.291626 886.540710,812.517334 892.336182,832.899109 
	C897.203613,850.016846 900.514832,867.456909 903.171936,885.031311 
	C904.347290,892.805237 902.503235,895.921936 895.052185,899.431580 
	C893.430359,900.195557 891.955444,901.271606 889.146973,902.969055 
	C892.366028,897.800049 887.908081,895.632263 887.227173,892.231079 
	C885.563232,883.919800 883.540405,875.681030 881.733032,867.397583 
	C878.109863,850.791748 873.771790,834.363586 867.628601,818.520020 
	C859.101257,796.527710 843.242371,781.067932 822.637512,770.228882 
	C804.159363,760.508423 784.472900,753.649170 764.998291,746.316467 
	C744.589722,738.632019 724.112549,731.129333 703.654724,723.576294 
	C701.520203,722.788208 699.313110,722.196533 697.199097,721.532349 
	C695.602905,724.183350 696.163757,726.600220 696.416077,728.800598 
	C698.819824,749.761536 700.562195,770.802307 703.830933,791.659912 
	C705.064880,799.533447 706.377136,807.394897 707.684753,815.256592 
	C709.012024,823.236267 702.297302,829.727600 694.296997,827.992432 
	C688.041626,826.635742 682.391479,823.723083 676.961243,820.436218 
	C663.706543,812.413452 650.505676,804.301819 637.269775,796.247925 
	C635.563965,795.210022 633.758545,794.337097 632.033875,793.328552 
	C625.618225,789.577087 619.741272,789.999146 613.462708,794.313538 
	C597.178162,805.503357 579.049744,811.619263 559.226196,812.325317 
	C556.454834,812.424011 554.505310,813.791504 552.675964,815.513916 
	C543.332764,824.311279 533.964722,833.102661 525.408264,842.670898 
	C516.568481,852.555969 513.342957,864.811401 512.401489,877.617432 
	C511.020386,896.402283 510.723511,915.234436 512.090576,934.044556 
	C512.340210,937.479980 511.511230,939.024475 507.845795,938.795715 
	C503.380585,938.516968 498.855560,939.307373 493.320923,937.794617 
	C493.320923,932.469727 493.392792,926.872131 493.308014,921.276855 
	C492.997681,900.802551 492.555603,880.324524 496.661926,860.093933 
	C496.827240,859.279663 496.849030,858.372192 497.239014,857.677307 
	C501.615997,849.878052 498.285767,844.054749 492.994049,838.145203 
	C484.872192,829.074829 476.527496,820.243286 467.896545,811.663940 
	C465.903137,809.682434 463.654388,809.394775 461.080017,809.337280 
	C442.865570,808.929932 425.775421,804.566589 410.777679,793.895569 
	C405.283478,789.986328 400.223541,789.931580 394.529297,792.939087 
	C381.984009,799.565125 370.288055,807.569519 358.255249,815.027161 
	C351.031616,819.504089 343.707855,823.698792 335.783936,826.944641 
	C325.220673,831.271606 316.384796,824.311951 318.607666,812.910400 
	C323.510345,787.763184 325.441132,762.213074 327.838776,736.734314 
	C328.304047,731.790039 328.970581,726.889648 328.844818,721.179077 
	C319.212738,724.672546 309.992065,727.924316 300.838013,731.353821 
	C271.221924,742.449524 241.102661,752.264343 212.351196,765.572327 
	C195.893509,773.190002 180.452469,782.316345 169.498291,797.408081 
	C160.423721,809.910339 156.044342,824.464844 151.450867,838.908264 
	C146.350388,854.945740 143.494873,871.533752 139.713501,887.893188 
	C138.770584,891.972595 137.858521,895.960815 134.868668,898.848328 
	C135.583557,900.799072 138.147324,900.548889 138.267044,902.628296 
	C129.450851,903.321472 121.333900,894.639648 122.814888,885.109802 
	C126.439713,861.784790 131.142242,838.703308 139.133911,816.364624 
	C150.350143,785.012573 172.075485,763.761658 201.653442,749.725159 
	C227.583755,737.419739 254.981873,728.929199 281.737213,718.768921 
	C297.764496,712.682678 313.814697,706.655396 329.899597,700.723572 
	C333.703644,699.320618 336.201111,697.148682 338.004425,693.326233 
	C344.893494,678.723877 354.761475,666.160461 365.757233,654.440796 
	C366.884277,653.239563 367.953094,651.983765 369.377899,650.383789 
	C361.961243,642.954651 354.960693,635.424377 348.818176,627.128601 
	C331.796417,604.139832 322.176178,578.173950 317.779480,550.144714 
	C317.236664,546.684265 315.938599,545.015442 312.670837,544.650940 
	C296.543549,542.851624 285.127960,533.709229 277.591339,520.182922 
	C261.638885,491.552551 256.028137,460.923676 263.842712,428.756897 
	C267.218597,414.860779 275.921173,404.718048 290.631378,401.236328 
	C293.489899,400.559753 296.514557,400.585236 299.782898,400.254456 
	C300.512329,394.066376 298.296204,388.377167 297.393280,382.602997 
	C293.285309,356.333099 292.246643,330.071014 295.507050,303.610443 
	C299.477325,271.389496 310.203186,241.872635 329.914917,215.943512 
	C349.224426,190.543549 374.358002,172.590454 403.384308,159.820663 
	C411.162720,156.398636 419.141602,153.509140 427.217163,150.880356 
	C429.304321,150.200943 431.349579,149.666290 431.655060,146.878799 
	C435.147278,115.012474 455.397400,98.788437 484.552063,92.360291 
	C509.541107,86.850594 534.605774,87.530243 558.233582,98.907463 
	C577.335876,108.105537 589.107117,123.269485 592.382996,144.510178 
	C592.925598,148.028458 594.496216,149.944550 598.012085,151.132034 
	C605.890808,153.793060 613.584473,157.001862 621.691650,160.160522 
M665.649170,608.179688 
	C677.614990,589.888184 684.459900,569.732971 687.792480,548.226196 
	C690.525513,530.588257 691.449585,512.846130 692.021362,495.033417 
	C692.983459,465.058380 693.468201,435.112823 691.888855,405.132141 
	C690.639893,381.423157 684.063660,359.679504 670.577209,340.066559 
	C667.425110,335.482574 665.306641,330.342316 664.792847,324.794983 
	C664.179199,318.170349 663.928772,311.504272 663.741760,304.849915 
	C663.511536,296.659546 661.219788,289.101624 657.093933,282.105286 
	C646.185669,263.607819 628.713318,256.820343 608.475037,255.374405 
	C587.967712,253.909241 567.493896,255.507935 547.142456,257.619293 
	C522.631958,260.162140 498.267303,258.851501 473.867798,256.903290 
	C452.294189,255.180649 430.746429,253.287094 409.126648,256.331268 
	C391.342285,258.835388 376.859131,266.366302 367.714081,282.531555 
	C363.413208,290.134003 361.271332,298.418884 361.464539,306.923523 
	C361.800598,321.715668 358.768646,335.126343 350.015625,347.377441 
	C344.190063,355.531128 340.727600,364.987549 338.137970,374.735535 
	C333.739105,391.293762 332.817566,408.265320 332.443756,425.210480 
	C331.822968,453.354645 332.642609,481.492096 334.118011,509.617493 
	C334.946991,525.419678 336.282532,541.112244 339.374298,556.641968 
	C347.319183,596.549255 368.808411,627.499756 401.685364,650.905029 
	C404.019867,652.567017 406.216827,654.752136 409.675323,654.841125 
	C409.784485,653.788269 409.968872,652.979553 409.934448,652.180237 
	C409.747742,647.846191 410.058777,643.783630 414.657166,641.559937 
	C419.440857,639.246643 422.573914,642.328613 425.769653,644.967957 
	C431.685974,649.854248 437.664429,654.658936 444.330444,658.491699 
	C469.347717,672.875793 496.268402,678.222046 524.973694,675.970947 
	C549.680237,674.033264 572.117493,666.246460 592.122070,651.611572 
	C596.015259,648.763428 599.624817,645.530212 603.412292,642.533936 
	C606.014465,640.475342 608.833252,640.179016 611.814453,641.771790 
	C614.988525,643.467834 616.072937,646.240662 616.042603,649.655701 
	C616.025940,651.529358 614.862549,653.514282 616.722656,655.620605 
	C636.278381,643.437683 652.310120,627.733154 665.649170,608.179688 
M397.213745,682.430115 
	C400.696045,699.495605 407.980835,714.936035 417.695709,729.236633 
	C430.975372,748.784790 447.894073,765.122986 464.530975,781.708923 
	C478.208710,795.344788 492.454071,808.432068 504.983398,823.193237 
	C506.999908,825.568848 508.428802,828.504700 511.119659,830.102661 
	C512.639526,829.999512 513.286194,828.953430 514.073425,828.127197 
	C523.384888,818.355652 533.235413,809.143677 543.058167,799.892883 
	C559.056763,784.825684 575.514038,770.210388 589.845581,753.457581 
	C604.887207,735.874817 618.052612,717.167053 625.103088,694.788269 
	C627.281067,687.875183 628.945068,680.855652 629.715576,672.785583 
	C627.487915,674.332336 625.986633,675.316223 624.546997,676.383179 
	C608.327148,688.404907 591.542297,699.459961 573.013794,707.721619 
	C545.257996,720.097778 516.587463,723.537476 486.723450,717.590454 
	C460.098297,712.288330 436.401245,700.601379 414.320068,685.226501 
	C408.383118,681.092773 402.491669,676.893616 396.102386,672.388184 
	C396.157501,676.075867 396.185272,678.886780 397.213745,682.430115 
M683.807739,771.351013 
	C682.566711,761.127563 681.344055,750.901794 680.079285,740.681274 
	C678.918030,731.297241 678.844971,721.735291 675.793457,712.652100 
	C671.268066,699.181946 663.358093,687.666443 654.646545,676.653015 
	C652.880615,674.420471 651.435486,671.776001 648.442261,669.809570 
	C646.611938,685.818787 643.245667,700.670898 636.967651,714.786133 
	C627.567505,735.920959 613.577698,753.852966 598.112732,770.754517 
	C591.931702,777.510010 585.551392,784.083130 578.439636,791.609253 
	C589.421814,789.264160 597.864624,784.706238 605.623047,778.843872 
	C614.413513,772.201721 623.740112,771.333191 633.873352,775.273743 
	C642.633606,778.680420 650.528625,783.618713 658.483582,788.482422 
	C668.385010,794.536133 678.284607,800.592651 689.204773,807.271606 
	C687.316589,794.759277 685.617432,783.499268 683.807739,771.351013 
M351.679565,798.122986 
	C363.100189,791.290710 374.096588,783.780762 385.964783,777.655640 
	C398.961578,770.948059 410.923859,770.982422 422.608459,780.603333 
	C428.544617,785.491028 435.674683,788.325073 444.732697,789.820618 
	C410.392395,755.423645 381.431580,719.277771 377.325867,668.128296 
	C372.671875,674.129944 368.643585,678.955933 365.020386,684.068909 
	C355.603821,697.357544 347.691498,711.323059 346.373566,728.075989 
	C344.848694,747.459167 342.085938,766.699280 339.665680,785.980225 
	C338.831390,792.626770 337.005585,799.187134 337.270325,806.670837 
	C342.235382,803.734985 346.650970,801.124084 351.679565,798.122986 
M312.432007,457.237762 
	C312.274048,449.597046 312.252075,441.950348 311.916534,434.317444 
	C311.631775,427.840240 305.282440,420.651917 299.083466,419.347626 
	C292.658173,417.995728 287.034424,421.147827 283.628143,428.344025 
	C282.285645,431.180237 280.963043,434.199219 280.525452,437.262695 
	C277.229614,460.336670 279.560181,482.704712 289.930725,503.840790 
	C293.643158,511.407074 298.791046,517.951294 306.103485,522.430603 
	C308.147644,523.682800 310.479309,525.718872 312.985809,524.328979 
	C315.605255,522.876465 314.741791,519.835571 314.606934,517.458374 
	C313.485535,497.695068 312.905640,477.914825 312.432007,457.237762 
M713.320312,436.847656 
	C713.589050,466.294342 711.705872,495.691467 710.998108,525.159668 
	C713.410156,525.644104 715.100281,524.473450 716.850830,523.640869 
	C726.107910,519.238403 731.534912,511.230621 735.939575,502.541016 
	C744.661377,485.334686 747.184204,466.777405 746.492432,447.762207 
	C746.239990,440.822174 745.189880,433.810974 741.599426,427.558044 
	C739.392090,423.713776 736.675964,420.449188 732.124756,419.237915 
	C723.675232,416.989197 714.200623,425.391235 713.320312,436.847656 
z"/>
<path fill="#000000" opacity="1.000000" stroke="none" 
	d="
M533.055908,887.228699 
	C527.461426,885.020752 524.153442,881.321045 523.745605,875.583252 
	C523.384644,870.504944 525.588562,866.488586 529.838501,863.762695 
	C534.234131,860.943359 539.559326,861.351868 543.864197,864.574707 
	C548.043579,867.703613 550.033569,873.162170 548.689026,877.808960 
	C547.088440,883.340515 543.094421,887.005981 537.887878,887.523315 
	C536.424988,887.668640 534.920227,887.392334 533.055908,887.228699 
z"/>
<path fill="#000000" opacity="1.000000" stroke="none" 
	d="
M421.221863,571.270874 
	C426.668732,565.513428 433.166931,562.085144 440.331512,560.222717 
	C458.760529,555.432190 477.444427,554.649719 496.260590,557.649841 
	C497.722504,557.882935 499.170593,558.373535 500.548187,558.933655 
	C505.316589,560.872498 508.106171,564.421021 508.237244,569.598572 
	C508.363800,574.599548 505.658203,578.115051 501.361938,580.350708 
	C495.286133,583.512390 488.563385,583.729675 481.936890,584.300537 
	C472.670532,585.098755 463.402313,585.875305 453.485229,586.716187 
	C474.844696,598.081665 542.309753,599.621948 571.375244,587.509583 
	C566.793091,585.879211 562.369446,585.662231 558.096558,585.458557 
	C549.937927,585.069641 541.851929,584.104004 533.755432,583.199707 
	C530.433350,582.828674 527.282227,581.681824 524.366028,579.973694 
	C520.287659,577.584900 517.928223,573.937683 518.056030,569.325867 
	C518.191223,564.447876 521.033386,561.007812 525.530090,558.964355 
	C530.524353,556.694824 535.891052,556.608521 541.184326,556.320679 
	C557.402771,555.438965 573.464478,556.338623 588.998413,561.608276 
	C596.417236,564.124939 602.812500,568.209900 607.293030,574.845947 
	C611.604004,581.230957 612.362732,588.122498 609.921997,595.349854 
	C607.561096,602.340698 601.474731,604.006042 595.876587,599.193542 
	C594.246277,597.791992 592.872620,596.079651 591.454651,594.446045 
	C588.617310,591.177368 585.096985,589.199951 580.455811,588.356689 
	C580.852905,591.764343 582.455139,595.039978 580.288025,598.032104 
	C578.052856,601.118286 574.435242,601.715393 571.125122,602.700439 
	C545.565186,610.306946 519.471497,611.617981 493.028015,609.548584 
	C478.686493,608.426270 464.640442,606.024780 451.000092,601.510193 
	C443.560547,599.047852 442.263550,594.687012 446.840210,587.823730 
	C441.995148,588.706787 438.219055,590.694519 435.277435,594.302673 
	C434.121887,595.720032 432.862244,597.068604 431.535095,598.327332 
	C424.953064,604.569946 418.421967,602.690857 415.893219,593.887573 
	C413.481812,585.492737 415.447876,578.114685 421.221863,571.270874 
z"/>
<path fill="#000000" opacity="1.000000" stroke="none" 
	d="
M399.617859,367.630737 
	C415.900208,366.517517 431.093842,370.176697 446.229492,374.050781 
	C452.984802,375.779877 459.625092,377.963593 466.301422,379.994080 
	C470.990265,381.420166 474.016083,384.592621 475.116608,389.325073 
	C477.256348,398.526581 470.531555,405.070709 461.189087,402.859619 
	C447.778870,399.685913 434.406647,396.379211 420.687866,394.716400 
	C407.593536,393.129303 394.537750,392.373993 381.514709,395.270569 
	C375.940247,396.510437 370.802277,398.768860 365.843170,401.562408 
	C362.767822,403.294769 359.452606,403.884735 356.580872,401.202942 
	C353.697052,398.509888 354.207153,395.119110 355.576324,391.942932 
	C358.374054,385.452606 363.350189,380.758087 369.090271,376.946991 
	C378.169586,370.918915 388.287781,367.967560 399.617859,367.630737 
z"/>
<path fill="#000000" opacity="1.000000" stroke="none" 
	d="
M635.221436,393.901978 
	C618.526123,392.110901 602.623962,394.759125 586.781067,397.851807 
	C579.610657,399.251556 572.522461,401.069702 565.388000,402.657623 
	C557.966614,404.309357 553.501465,402.146179 551.439392,395.964874 
	C549.338257,389.666565 552.312012,383.076141 558.728088,380.469696 
	C567.683472,376.831696 577.070496,374.565857 586.425476,372.234497 
	C600.037903,368.842133 613.817810,366.625702 627.883057,367.755859 
	C642.999573,368.970520 656.429565,373.997650 666.243286,386.309448 
	C668.011902,388.528198 669.410156,390.974091 670.507263,393.611816 
	C671.648743,396.356506 671.518311,398.908142 669.336914,400.965363 
	C667.291992,402.893829 664.786804,403.714355 661.976379,402.634247 
	C660.738037,402.158356 659.458435,401.717560 658.329834,401.040314 
	C651.339355,396.845245 643.734985,394.675812 635.221436,393.901978 
z"/>
<path fill="#000000" opacity="1.000000" stroke="none" 
	d="
M589.133423,441.193420 
	C589.393982,440.291534 589.561462,439.681824 589.883423,438.510193 
	C585.665283,440.490021 583.223389,443.638336 580.607300,446.567871 
	C577.064026,450.535767 573.494507,451.464874 570.174622,449.227631 
	C566.732483,446.907990 566.174988,443.421539 569.045349,438.698303 
	C575.447021,428.164307 585.028137,421.853821 596.925903,419.371429 
	C616.052185,415.380981 632.428406,420.307251 645.293396,435.442719 
	C646.257568,436.577026 647.116577,437.822876 647.876160,439.104706 
	C649.983582,442.661011 650.194641,446.219696 646.659302,448.902405 
	C643.221375,451.511169 639.777588,450.704437 636.794983,447.773254 
	C634.543335,445.560516 632.437988,443.188660 630.084106,441.093689 
	C628.407166,439.601105 626.673645,437.949829 623.873108,437.991943 
	C624.917908,441.418945 626.146851,444.651245 626.875366,447.992615 
	C628.875061,457.164185 624.598083,466.895630 616.702454,471.646210 
	C609.678345,475.872375 600.550110,475.291382 594.351807,469.875458 
	C587.772339,464.126404 585.793030,456.636444 587.158264,448.198792 
	C587.527161,445.919220 588.399292,443.721100 589.133423,441.193420 
z"/>
<path fill="#000000" opacity="1.000000" stroke="none" 
	d="
M397.915222,421.704590 
	C419.091248,413.923340 441.082275,419.351196 452.902649,435.125458 
	C454.193298,436.847839 455.299255,438.732697 456.301880,440.641479 
	C458.078644,444.024017 456.923950,446.886536 454.097992,448.959381 
	C451.200287,451.084808 448.098145,450.933472 445.471130,448.348999 
	C442.408478,445.335907 440.109985,441.542084 435.776764,439.090729 
	C438.499512,445.716675 440.471191,452.032440 438.381439,458.944855 
	C435.328735,469.042419 426.429169,475.432373 416.624054,474.232025 
	C407.081940,473.063904 399.925598,464.308228 399.557220,453.840149 
	C399.344788,447.805023 400.823120,442.332703 404.335754,436.450134 
	C398.295349,438.089233 394.015533,440.943756 390.350311,444.839874 
	C389.325043,445.929810 388.496246,447.234528 387.364899,448.188965 
	C384.407684,450.683868 381.022064,451.487000 377.791077,449.001648 
	C374.467041,446.444702 374.583954,443.055725 376.594452,439.615051 
	C381.493774,431.230408 388.728394,425.595612 397.915222,421.704590 
z"/>
<path fill="#000000" opacity="1.000000" stroke="none" 
	d="
M496.050873,534.681458 
	C499.883850,536.446106 503.469147,537.870361 506.759827,539.797668 
	C510.982208,542.270691 514.904541,541.958313 519.035583,539.717529 
	C522.540527,537.816345 526.127441,536.045227 529.772888,534.430603 
	C532.840698,533.071899 536.068054,532.215576 539.476379,533.227112 
	C541.991760,533.973572 544.106018,533.305481 545.703613,531.268860 
	C547.287231,529.250061 546.514404,527.169128 545.609497,525.146423 
	C545.338684,524.541077 544.987854,523.969971 544.654053,523.394531 
	C542.557861,519.781250 542.391968,516.382446 546.106689,513.728699 
	C549.224731,511.501343 554.668030,512.189819 556.907532,515.566040 
	C561.816833,522.967163 562.916809,531.018677 559.087769,539.255127 
	C555.604492,546.747925 549.739014,550.898254 541.239014,550.228638 
	C535.514465,549.777771 530.422791,550.988464 525.672058,554.237305 
	C517.281128,559.975464 508.875183,560.464600 500.239929,554.391602 
	C495.352539,550.954407 489.705566,549.671509 483.636902,550.206970 
	C474.955048,550.973083 468.547485,547.106628 465.335815,539.241150 
	C462.018341,531.116516 462.583099,522.816223 467.995819,515.556030 
	C470.582825,512.085999 474.629120,511.528656 478.333008,513.649170 
	C482.223602,515.876587 482.281769,519.439148 480.301392,523.186523 
	C478.900085,525.838074 477.163605,528.570374 479.191223,531.572632 
	C481.205353,534.555054 484.179993,533.426575 486.949036,532.970947 
	C490.037170,532.462708 492.869537,533.456421 496.050873,534.681458 
z"/>
<path fill="#000000" opacity="1.000000" stroke="none" 
	d="
M533.221985,626.213135 
	C534.978882,626.116821 536.324707,625.937317 537.625488,626.105896 
	C540.636047,626.496094 543.015503,627.906067 543.942017,630.985779 
	C544.917358,634.227844 543.192261,636.468567 540.790222,638.221680 
	C535.263672,642.255127 528.789490,644.134277 522.203796,644.923645 
	C511.389618,646.220032 500.603455,645.853699 490.422577,641.156067 
	C489.215759,640.599182 487.986053,640.060608 486.862885,639.359741 
	C483.563324,637.301025 480.830811,634.681030 482.410889,630.423584 
	C483.947174,626.283936 487.697632,625.816101 491.556305,626.126404 
	C497.681091,626.618896 503.797089,627.231384 509.926422,627.653442 
	C517.597717,628.181702 525.175903,626.869324 533.221985,626.213135 
z"/>
<path fill="#000000" opacity="1.000000" stroke="none" 
	d="
M651.863525,579.583374 
	C650.558533,584.200317 648.196350,587.862793 645.921753,591.529663 
	C644.042358,594.559448 641.139038,596.351685 637.472656,595.624878 
	C634.025024,594.941406 633.015076,591.938965 632.289551,588.933105 
	C630.114929,579.923523 631.196106,570.682434 630.524414,561.563110 
	C630.115784,556.015564 638.969971,548.289612 644.713440,547.959595 
	C650.725037,547.614197 654.353760,551.447327 654.875000,558.978333 
	C655.354431,565.904297 652.609558,572.403076 651.863525,579.583374 
z"/>
</svg>